<svg width="32" height="32" viewBox="0 0 32 32" fill="none" xmlns="http://www.w3.org/2000/svg">
<path fill-rule="evenodd" clip-rule="evenodd" d="M23.7213 8.2787C19.5331 4.09049 12.7009 4.09049 8.48928 8.2787C4.30106 12.4669 4.30106 19.2991 8.48928 23.5107C10.5951 25.6165 13.356 26.6694 16.0936 26.6694C18.8545 26.6694 21.6155 25.6165 23.6979 23.5107C27.9329 19.2991 27.9329 12.4669 23.7213 8.2787ZM9.82299 22.177C6.59409 18.9247 6.38351 13.7772 9.19125 10.2909L21.7091 22.8088C18.2228 25.6165 13.0753 25.4293 9.82299 22.177ZM10.5249 8.95722L23.0428 21.4751C25.8505 17.9888 25.6399 12.8413 22.411 9.58897C20.6796 7.85753 18.3866 6.99181 16.117 6.99181C14.1282 6.99181 12.1394 7.64695 10.5249 8.95722Z" fill="#DB5A3A"/>
<mask id="mask0" mask-type="alpha" maskUnits="userSpaceOnUse" x="5" y="5" width="22" height="22">
<path fill-rule="evenodd" clip-rule="evenodd" d="M23.7213 8.2787C19.5331 4.09049 12.7009 4.09049 8.48928 8.2787C4.30106 12.4669 4.30106 19.2991 8.48928 23.5107C10.5951 25.6165 13.356 26.6694 16.0936 26.6694C18.8545 26.6694 21.6155 25.6165 23.6979 23.5107C27.9329 19.2991 27.9329 12.4669 23.7213 8.2787ZM9.82299 22.177C6.59409 18.9247 6.38351 13.7772 9.19125 10.2909L21.7091 22.8088C18.2228 25.6165 13.0753 25.4293 9.82299 22.177ZM10.5249 8.95722L23.0428 21.4751C25.8505 17.9888 25.6399 12.8413 22.411 9.58897C20.6796 7.85753 18.3866 6.99181 16.117 6.99181C14.1282 6.99181 12.1394 7.64695 10.5249 8.95722Z" fill="white"/>
</mask>
<g mask="url(#mask0)">
</g>
</svg>
